<?xml version="1.0" standalone="no"?>
<!DOCTYPE svg PUBLIC "-//W3C//DTD SVG 20010904//EN"
 "http://www.w3.org/TR/2001/REC-SVG-20010904/DTD/svg10.dtd">
<svg version="1.0" xmlns="http://www.w3.org/2000/svg"
 width="215.000000pt" height="215.000000pt" viewBox="0 0 215.000000 215.000000"
 preserveAspectRatio="xMidYMid meet">
<metadata>
Created by potrace 1.14, written by Peter Selinger 2001-2017
</metadata>
<g transform="translate(0.000000,215.000000) scale(0.100000,-0.100000)"
fill="#000000" stroke="none">
<path d="M1225 1702 c-28 -4 -105 -57 -132 -92 -10 -13 -15 -12 -40 7 -104 83
-209 87 -280 11 -19 -20 -53 -87 -53 -103 0 -3 0 -22 0 -44 l0 -39 -54 -4
c-96 -8 -160 -81 -158 -180 2 -117 132 -257 240 -258 32 0 39 -11 26 -44 -4
-11 -19 -16 -51 -16 -48 0 -97 -20 -106 -45 -9 -21 3 -19 28 5 16 15 37 20 84
22 68 3 71 5 84 76 l7 32 -51 0 c-66 0 -107 19 -157 70 -86 89 -94 209 -19
278 28 27 93 36 139 20 33 -12 46 -5 29 16 -15 18 -5 129 15 168 48 94 191 89
274 -9 24 -28 33 -34 37 -23 10 28 104 109 134 115 107 24 190 -59 185 -184
-2 -59 -1 -62 18 -56 61 19 115 17 150 -4 69 -43 100 -135 73 -216 -29 -85
-118 -165 -184 -165 -18 0 -33 -6 -36 -14 -13 -32 26 -116 54 -116 5 0 9 -53
9 -119 0 -66 3 -122 8 -124 9 -6 53 29 46 36 -3 3 -12 3 -20 0 -11 -4 -14 13
-14 95 0 84 -3 103 -20 125 -39 49 -32 69 37 102 73 36 99 58 124 106 54 107
33 256 -45 312 -25 17 -45 22 -98 22 l-66 0 -7 49 c-16 126 -100 201 -210 188z"/>
<path d="M1219 1617 c-64 -32 -86 -87 -80 -199 1 -18 17 -44 45 -74 44 -45 45
-46 80 -34 78 25 131 138 107 225 -15 52 -31 72 -73 89 -33 14 -39 14 -79 -7z
m90 -74 c30 -24 34 -85 7 -89 -11 -1 -23 -10 -28 -18 -13 -22 -28 -20 -28 4 0
22 -15 27 -24 8 -3 -7 -3 1 -1 17 2 17 4 35 4 40 1 6 6 3 11 -5 9 -13 10 -13
11 0 1 8 2 20 4 25 1 6 3 16 3 23 3 17 16 15 41 -5z"/>
<path d="M853 1601 c-70 -43 -60 -134 26 -236 23 -28 46 -56 52 -62 18 -23 60
-14 94 20 75 75 51 203 -52 275 -38 27 -78 28 -120 3z m91 -68 c4 -4 15 -8 24
-8 13 0 17 -11 20 -46 3 -40 1 -46 -22 -57 -22 -10 -26 -9 -26 3 0 8 5 15 10
15 6 0 10 6 10 14 0 9 -8 12 -25 8 -27 -5 -28 -1 -19 47 6 31 14 38 28 24z"/>
<path d="M1475 1398 c-47 -17 -74 -48 -91 -105 -20 -70 -11 -124 27 -162 16
-16 29 -34 29 -39 0 -30 59 -21 109 16 98 73 101 256 4 293 -29 11 -39 11 -78
-3z m85 -82 c0 16 2 17 10 4 12 -19 13 -97 1 -105 -5 -3 -12 3 -14 12 -4 15
-5 14 -6 -3 0 -12 -8 -27 -16 -34 -13 -10 -19 -10 -35 5 -21 19 -28 79 -10 90
6 4 8 11 5 16 -4 5 1 9 9 9 9 0 16 8 16 18 1 14 4 13 20 -7 18 -21 20 -21 20
-5z"/>
<path d="M638 1362 c-27 -14 -34 -23 -36 -55 -7 -77 64 -207 112 -207 9 0 16
-8 16 -20 0 -16 7 -20 30 -20 68 0 116 63 106 137 -11 85 -88 168 -164 178
-17 2 -45 -4 -64 -13z m124 -102 c10 0 18 -3 19 -7 4 -43 3 -65 -3 -69 -4 -3
-8 0 -8 6 0 6 -11 16 -25 22 -19 8 -25 19 -25 42 0 23 3 27 12 18 7 -7 20 -12
30 -12z"/>
<path d="M1065 1320 c-26 -38 -67 -55 -133 -54 -57 1 -57 2 -30 -69 11 -27 11
-28 29 -8 10 10 44 32 76 47 85 42 148 40 234 -9 l67 -37 6 31 c8 39 8 79 0
79 -3 0 -15 -5 -26 -11 -50 -27 -153 -3 -181 41 -16 26 -18 25 -42 -10z"/>
<path d="M1033 1208 c-101 -54 -180 -169 -170 -246 5 -38 16 -72 23 -72 3 0
26 11 52 24 47 23 85 23 115 -3 9 -7 25 -4 52 8 49 22 102 19 128 -7 19 -20
21 -36 14 -127 -3 -40 27 -44 68 -11 26 22 29 27 18 45 -31 50 -1 116 49 109
21 -3 23 1 22 34 -2 73 -81 181 -173 235 -62 36 -143 41 -198 11z m172 -64
c17 -3 31 -9 33 -13 2 -5 21 -32 42 -62 46 -61 49 -81 16 -102 -23 -15 -24
-15 -18 5 4 17 2 20 -12 15 -9 -4 -36 0 -59 8 -49 17 -91 20 -82 5 4 -7 -3 -8
-22 -4 -15 4 -32 13 -36 21 -5 9 -13 11 -20 5 -16 -12 -55 -13 -62 -1 -4 5 -1
9 4 9 6 0 11 6 11 14 0 7 24 37 52 65 57 57 49 55 153 35z"/>
<path d="M423 938 c-11 -13 -26 -39 -33 -58 -8 -19 -27 -57 -42 -83 -30 -51
-36 -103 -17 -140 22 -43 52 -67 83 -67 28 0 46 -9 123 -61 16 -11 39 -15 68
-13 37 3 49 -1 69 -21 20 -19 35 -25 71 -25 51 0 85 14 85 34 0 8 12 21 26 31
34 22 54 72 54 134 0 78 -44 103 -73 42 -14 -27 -14 -37 -2 -113 6 -40 4 -49
-15 -68 -29 -29 -86 -23 -142 16 -29 21 -50 27 -79 26 -39 -3 -88 16 -124 48
-11 9 -35 22 -53 28 -49 17 -92 51 -92 73 0 10 13 37 29 60 17 22 37 63 46 90
41 122 106 90 176 -86 57 -144 70 -167 86 -151 13 13 6 118 -8 127 -35 21 -40
27 -42 49 -1 13 -9 25 -20 28 -10 2 -27 22 -37 43 -40 78 -96 101 -137 57z"/>
<path d="M1681 933 c-15 -12 -26 -40 -35 -83 -29 -136 -34 -148 -61 -145 -27
3 -31 -5 -13 -23 29 -29 45 -13 67 66 12 43 21 89 21 103 1 13 8 35 16 49 15
24 15 23 10 -23 -7 -63 -50 -209 -72 -247 -14 -22 -15 -33 -7 -41 14 -14 56
-5 77 17 18 17 21 44 6 44 -22 0 -8 22 22 35 40 16 48 12 42 -20 -6 -32 14
-33 64 -2 20 13 46 27 56 31 19 7 19 6 2 -13 -22 -24 -95 -61 -121 -61 -10 0
-33 -12 -52 -26 -19 -14 -53 -28 -76 -31 -23 -3 -49 -11 -57 -18 -30 -25 -110
-44 -175 -41 -47 1 -73 -2 -88 -13 -31 -22 -158 -24 -208 -4 -31 12 -42 13
-54 3 -18 -15 -102 -15 -120 0 -18 15 -29 -4 -15 -30 6 -11 18 -24 28 -29 19
-10 88 -8 114 3 9 4 37 0 62 -8 54 -18 141 -14 186 9 22 11 44 14 79 9 54 -7
144 14 197 47 17 10 40 19 51 19 11 0 36 11 56 24 37 25 59 34 104 42 59 10
115 78 116 139 0 29 -86 189 -116 213 -26 22 -82 24 -106 5z m96 -32 c35 -36
103 -150 103 -171 -1 -19 -33 23 -80 105 -24 40 -47 66 -70 77 -35 18 -35 18
-8 18 18 0 38 -11 55 -29z m-45 -117 c3 -3 4 -14 1 -25 -8 -28 -33 -24 -33 6
0 23 18 34 32 19z"/>
<path d="M442 917 c-6 -7 -18 -35 -27 -62 -10 -28 -30 -69 -46 -93 -16 -24
-29 -45 -29 -47 0 -6 67 -45 79 -45 7 0 9 9 5 25 -7 29 4 32 47 9 23 -12 28
-18 20 -28 -6 -8 -9 -21 -5 -29 10 -27 124 -74 124 -52 0 13 -89 264 -103 292
-9 17 -24 33 -32 37 -22 8 -21 8 -33 -7z"/>
<path d="M672 899 c-35 -13 -51 -63 -29 -93 12 -16 14 -16 39 3 30 24 39 26
33 9 -2 -7 -6 -47 -9 -89 -3 -41 -11 -90 -17 -107 -10 -28 -9 -36 7 -53 63
-70 131 -52 105 28 -14 44 -11 212 4 216 6 1 14 -8 20 -20 18 -42 45 -22 45
33 0 40 -18 63 -53 68 -61 10 -124 12 -145 5z"/>
<path d="M1373 897 c-30 -13 -35 -33 -17 -69 18 -35 28 -203 15 -261 -6 -26
-5 -37 3 -38 51 -7 148 17 175 43 17 15 21 29 19 61 -4 54 -22 57 -48 8 -37
-74 -56 -45 -59 90 -1 47 2 97 8 111 8 21 6 29 -7 41 -23 21 -62 27 -89 14z"/>
<path d="M952 889 c-33 -10 -33 -10 -26 -57 12 -73 8 -219 -7 -264 -12 -37
-11 -42 6 -54 26 -19 89 -18 106 2 9 12 10 23 2 43 -15 41 -15 168 1 241 11
49 11 68 3 76 -19 18 -49 23 -85 13z"/>
<path d="M1133 892 c-35 -5 -48 -28 -33 -60 18 -40 23 -78 23 -174 0 -54 -5
-93 -12 -102 -21 -25 -4 -56 32 -58 72 -4 121 2 143 17 20 13 24 24 24 65 0
27 -4 52 -10 55 -5 3 -21 -12 -35 -35 -45 -72 -63 -46 -63 95 0 61 5 112 13
131 10 25 11 36 2 47 -13 16 -49 24 -84 19z"/>
<path d="M1054 796 c-10 -26 1 -51 24 -54 24 -4 27 4 12 42 -11 29 -28 34 -36
12z"/>
<path d="M1290 728 c-24 -10 -46 -20 -47 -22 -8 -7 -12 -48 -6 -61 4 -13 9
-12 34 2 24 14 33 15 49 5 11 -6 22 -12 25 -12 8 0 6 98 -2 103 -5 3 -28 -4
-53 -15z"/>
<path d="M1060 689 c-14 -25 -8 -105 9 -122 18 -18 31 10 31 69 0 61 -21 89
-40 53z"/>
</g>
</svg>
